<?xml version="1.0" encoding="utf-8"?>
<!-- Generator: Adobe Illustrator 23.0.1, SVG Export Plug-In . SVG Version: 6.00 Build 0)  -->
<svg version="1.1" id="Layer_1" xmlns="http://www.w3.org/2000/svg" xmlns:xlink="http://www.w3.org/1999/xlink" x="0px" y="0px"
	 viewBox="0 0 400 400" style="enable-background:new 0 0 400 400;" xml:space="preserve">
<g>
	<g>
		<path fill="#1deee2" d="M228.1,192v10.7c0,10.4-2.9,18.4-8.8,24c-5.8,5.6-14,8.4-24.6,8.4c-9.7,0-17.5-2.7-23.2-8c-5.8-5.4-8.6-13.2-8.6-23.6V192
			h-14.8v11.7c0,13.7,4.2,24.6,12.6,32.7c8.4,8.1,19.7,12.2,33.8,12.2c14.7,0,26.2-4.3,34.7-13c8.5-8.6,12.7-19.9,12.7-33.7V192
			H228.1z"/>
	</g>
</g>
<g id="Layer_1_copy">
	<g>
		<path fill="#1deee2" d="M213,158.8v12.3h15.1V206h13.8v-34.9h14.8v-12.3H213z M133.3,158.8v12.3h14.8V206h14.8v-34.9h14.8v-12.3H133.3z"/>
	</g>
	<path fill="#1deee2" d="M185,115c0,8.3-7.7,15-16,15s-15-6.7-15-15s6.7-14,15-14S185,106.7,185,115z"/>
	<path fill="#1deee2" d="M222,101c8.3,0,15,5.7,15,14s-6.7,15-15,15s-15-6.7-15-15S213.7,101,222,101z"/>
</g>
</svg>
